<svg width="18" height="18" viewBox="0 0 18 18" fill="none" xmlns="http://www.w3.org/2000/svg">
<path d="M16.3984 6.78125C16.1016 6.47656 15.7969 6.15625 15.6797 5.88281C15.5625 5.60938 15.5703 5.20313 15.5625 4.78906C15.5547 4.03125 15.5391 3.16406 14.9375 2.5625C14.3359 1.96094 13.4688 1.94531 12.7109 1.9375C12.2969 1.92969 11.875 1.92187 11.6172 1.82031C11.3594 1.71875 11.0234 1.39844 10.7188 1.10156C10.1797 0.585938 9.5625 0 8.75 0C7.9375 0 7.32031 0.585938 6.78125 1.10156C6.47656 1.39844 6.15625 1.70312 5.88281 1.82031C5.60938 1.9375 5.20313 1.92969 4.78906 1.9375C4.03125 1.94531 3.16406 1.96094 2.5625 2.5625C1.96094 3.16406 1.94531 4.03125 1.9375 4.78906C1.92969 5.20313 1.92187 5.625 1.82031 5.88281C1.71875 6.14062 1.39844 6.47656 1.10156 6.78125C0.585938 7.32031 0 7.9375 0 8.75C0 9.5625 0.585938 10.1797 1.10156 10.7188C1.39844 11.0234 1.70312 11.3438 1.82031 11.6172C1.9375 11.8906 1.92969 12.2969 1.9375 12.7109C1.94531 13.4688 1.96094 14.3359 2.5625 14.9375C3.16406 15.5391 4.03125 15.5547 4.78906 15.5625C5.20313 15.5703 5.625 15.5781 5.88281 15.6797C6.14062 15.7812 6.47656 16.1016 6.78125 16.3984C7.32031 16.9141 7.9375 17.5 8.75 17.5C9.5625 17.5 10.1797 16.9141 10.7188 16.3984C11.0234 16.1016 11.3438 15.7969 11.6172 15.6797C11.8906 15.5625 12.2969 15.5703 12.7109 15.5625C13.4688 15.5547 14.3359 15.5391 14.9375 14.9375C15.5391 14.3359 15.5547 13.4688 15.5625 12.7109C15.5703 12.2969 15.5781 11.875 15.6797 11.6172C15.7812 11.3594 16.1016 11.0234 16.3984 10.7188C16.9141 10.1797 17.5 9.5625 17.5 8.75C17.5 7.9375 16.9141 7.32031 16.3984 6.78125ZM12.6172 7.32812L8.03906 11.7031C7.92071 11.8145 7.76405 11.876 7.60156 11.875C7.44146 11.8756 7.28739 11.814 7.17188 11.7031L4.88281 9.51562C4.81932 9.46023 4.76769 9.39257 4.73101 9.31672C4.69434 9.24086 4.67338 9.15837 4.6694 9.07421C4.66541 8.99004 4.67849 8.90594 4.70784 8.82696C4.73719 8.74798 4.78221 8.67575 4.84018 8.61461C4.89816 8.55347 4.9679 8.50469 5.04521 8.47119C5.12253 8.43769 5.20581 8.42017 5.29007 8.41968C5.37432 8.41919 5.45781 8.43574 5.53551 8.46834C5.6132 8.50094 5.6835 8.54891 5.74219 8.60938L7.60156 10.3828L11.7578 6.42188C11.8793 6.31585 12.0371 6.26091 12.1982 6.26853C12.3593 6.27615 12.5112 6.34575 12.6222 6.46277C12.7332 6.5798 12.7946 6.73519 12.7937 6.89646C12.7928 7.05773 12.7295 7.2124 12.6172 7.32812Z" fill="#D3B86A" style="fill:#D3B86A;fill:color(display-p3 0.8275 0.7216 0.4157);fill-opacity:1;"/>
<path d="M12.6172 7.32812L8.03906 11.7031C7.92071 11.8145 7.76405 11.876 7.60156 11.875C7.44146 11.8756 7.28739 11.814 7.17188 11.7031L4.88281 9.51562C4.81932 9.46023 4.76769 9.39257 4.73101 9.31672C4.69434 9.24086 4.67338 9.15837 4.6694 9.07421C4.66541 8.99004 4.67849 8.90594 4.70784 8.82696C4.73719 8.74798 4.78221 8.67575 4.84018 8.61461C4.89816 8.55347 4.9679 8.50469 5.04521 8.47119C5.12253 8.43769 5.20581 8.42017 5.29007 8.41968C5.37432 8.41919 5.45781 8.43574 5.53551 8.46834C5.6132 8.50094 5.6835 8.54891 5.74219 8.60938L7.60156 10.3828L11.7578 6.42188C11.8793 6.31585 12.0371 6.26091 12.1982 6.26853C12.3593 6.27615 12.5112 6.34575 12.6222 6.46277C12.7332 6.5798 12.7946 6.73519 12.7937 6.89646C12.7928 7.05773 12.7295 7.2124 12.6172 7.32812Z" fill="#D3B86A" style="fill:#D3B86A;fill:color(display-p3 0.8275 0.7216 0.4157);fill-opacity:1;"/>
<path d="M12.6172 7.32812L8.03906 11.7031C7.92071 11.8145 7.76405 11.876 7.60156 11.875C7.44146 11.8756 7.28739 11.814 7.17188 11.7031L4.88281 9.51562C4.81932 9.46023 4.76769 9.39257 4.73101 9.31672C4.69434 9.24086 4.67338 9.15837 4.6694 9.07421C4.66541 8.99004 4.67849 8.90594 4.70784 8.82696C4.73719 8.74798 4.78221 8.67575 4.84018 8.61461C4.89816 8.55347 4.9679 8.50469 5.04521 8.47119C5.12253 8.43769 5.20581 8.42017 5.29007 8.41968C5.37432 8.41919 5.45781 8.43574 5.53551 8.46834C5.6132 8.50094 5.6835 8.54891 5.74219 8.60938L7.60156 10.3828L11.7578 6.42188C11.8793 6.31585 12.0371 6.26091 12.1982 6.26853C12.3593 6.27615 12.5112 6.34575 12.6222 6.46277C12.7332 6.5798 12.7946 6.73519 12.7937 6.89646C12.7928 7.05773 12.7295 7.2124 12.6172 7.32812Z" fill="black" style="fill:black;fill-opacity:1;"/>
</svg>
